<?xml version="1.0" standalone="no"?>
<!DOCTYPE svg PUBLIC "-//W3C//DTD SVG 20010904//EN"
 "http://www.w3.org/TR/2001/REC-SVG-20010904/DTD/svg10.dtd">
<svg version="1.0" xmlns="http://www.w3.org/2000/svg"
 width="260.000000pt" height="260.000000pt" viewBox="0 0 260.000000 260.000000"
 preserveAspectRatio="xMidYMid meet">
<metadata>
Created by potrace 1.11, written by Peter Selinger 2001-2013
</metadata>
<g transform="translate(0.000000,260.000000) scale(0.100000,-0.100000)"
fill="#000000" stroke="none">
<path d="M1140 2483 c-81 -10 -153 -30 -215 -60 -107 -53 -151 -90 -231 -193
-170 -217 -285 -554 -320 -930 -3 -36 -10 -94 -14 -130 -9 -68 -6 -380 6 -561
l7 -106 -51 -66 c-67 -87 -115 -191 -146 -314 -14 -56 -26 -106 -26 -112 0 -8
342 -11 1155 -11 635 0 1155 4 1155 8 0 17 -48 169 -77 243 -16 41 -53 111
-82 154 l-53 79 6 120 c4 67 9 153 12 191 13 179 12 269 -6 315 -10 26 -20 90
-24 155 -23 360 -130 681 -302 906 -61 79 -176 183 -256 231 -109 65 -167 78
-352 81 -89 1 -172 1 -186 0z"/>
</g>
</svg>
